<svg width="28" height="33" viewBox="0 0 28 33" fill="none" xmlns="http://www.w3.org/2000/svg">
<path d="M8.85712 3.83331C8.85712 3.5681 8.76681 3.31374 8.60607 3.12621C8.44532 2.93867 8.22731 2.83331 7.99998 2.83331C7.77265 2.83331 7.55463 2.93867 7.39389 3.12621C7.23314 3.31374 7.14283 3.5681 7.14283 3.83331V5.93998C5.49712 6.09331 4.41826 6.46931 3.62512 7.39598C2.83083 8.32131 2.50855 9.58131 2.37598 11.5H25.0525C24.92 9.57998 24.5977 8.32131 23.8034 7.39598C23.0103 6.46931 21.9303 6.09331 20.2857 5.93865V3.83331C20.2857 3.5681 20.1954 3.31374 20.0346 3.12621C19.8739 2.93867 19.6559 2.83331 19.4285 2.83331C19.2012 2.83331 18.9832 2.93867 18.8225 3.12621C18.6617 3.31374 18.5714 3.5681 18.5714 3.83331V5.85065C17.8114 5.83331 16.9588 5.83331 16 5.83331H11.4285C10.4697 5.83331 9.61712 5.83331 8.85712 5.85065V3.83331Z" fill="#6671F3"/>
<path fill-rule="evenodd" clip-rule="evenodd" d="M2.28577 16.5C2.28577 15.3813 2.28577 14.3867 2.30062 13.5H25.1281C25.1429 14.3867 25.1429 15.3813 25.1429 16.5V19.1667C25.1429 24.1947 25.1429 26.7093 23.8035 28.2707C22.4652 29.8333 20.3098 29.8333 16.0001 29.8333H11.4286C7.11891 29.8333 4.96348 29.8333 3.6252 28.2707C2.28577 26.7093 2.28577 24.1947 2.28577 19.1667V16.5ZM19.4286 19.1667C19.7317 19.1667 20.0224 19.0262 20.2367 18.7761C20.4511 18.5261 20.5715 18.187 20.5715 17.8333C20.5715 17.4797 20.4511 17.1406 20.2367 16.8905C20.0224 16.6405 19.7317 16.5 19.4286 16.5C19.1255 16.5 18.8348 16.6405 18.6205 16.8905C18.4062 17.1406 18.2858 17.4797 18.2858 17.8333C18.2858 18.187 18.4062 18.5261 18.6205 18.7761C18.8348 19.0262 19.1255 19.1667 19.4286 19.1667ZM19.4286 24.5C19.7317 24.5 20.0224 24.3595 20.2367 24.1095C20.4511 23.8594 20.5715 23.5203 20.5715 23.1667C20.5715 22.813 20.4511 22.4739 20.2367 22.2239C20.0224 21.9738 19.7317 21.8333 19.4286 21.8333C19.1255 21.8333 18.8348 21.9738 18.6205 22.2239C18.4062 22.4739 18.2858 22.813 18.2858 23.1667C18.2858 23.5203 18.4062 23.8594 18.6205 24.1095C18.8348 24.3595 19.1255 24.5 19.4286 24.5ZM14.8572 17.8333C14.8572 18.187 14.7368 18.5261 14.5225 18.7761C14.3081 19.0262 14.0174 19.1667 13.7143 19.1667C13.4112 19.1667 13.1205 19.0262 12.9062 18.7761C12.6919 18.5261 12.5715 18.187 12.5715 17.8333C12.5715 17.4797 12.6919 17.1406 12.9062 16.8905C13.1205 16.6405 13.4112 16.5 13.7143 16.5C14.0174 16.5 14.3081 16.6405 14.5225 16.8905C14.7368 17.1406 14.8572 17.4797 14.8572 17.8333ZM14.8572 23.1667C14.8572 23.5203 14.7368 23.8594 14.5225 24.1095C14.3081 24.3595 14.0174 24.5 13.7143 24.5C13.4112 24.5 13.1205 24.3595 12.9062 24.1095C12.6919 23.8594 12.5715 23.5203 12.5715 23.1667C12.5715 22.813 12.6919 22.4739 12.9062 22.2239C13.1205 21.9738 13.4112 21.8333 13.7143 21.8333C14.0174 21.8333 14.3081 21.9738 14.5225 22.2239C14.7368 22.4739 14.8572 22.813 14.8572 23.1667ZM8.00005 19.1667C8.30316 19.1667 8.59385 19.0262 8.80817 18.7761C9.0225 18.5261 9.14291 18.187 9.14291 17.8333C9.14291 17.4797 9.0225 17.1406 8.80817 16.8905C8.59385 16.6405 8.30316 16.5 8.00005 16.5C7.69695 16.5 7.40626 16.6405 7.19193 16.8905C6.9776 17.1406 6.8572 17.4797 6.8572 17.8333C6.8572 18.187 6.9776 18.5261 7.19193 18.7761C7.40626 19.0262 7.69695 19.1667 8.00005 19.1667ZM8.00005 24.5C8.30316 24.5 8.59385 24.3595 8.80817 24.1095C9.0225 23.8594 9.14291 23.5203 9.14291 23.1667C9.14291 22.813 9.0225 22.4739 8.80817 22.2239C8.59385 21.9738 8.30316 21.8333 8.00005 21.8333C7.69695 21.8333 7.40626 21.9738 7.19193 22.2239C6.9776 22.4739 6.8572 22.813 6.8572 23.1667C6.8572 23.5203 6.9776 23.8594 7.19193 24.1095C7.40626 24.3595 7.69695 24.5 8.00005 24.5Z" fill="#6671F3"/>
</svg>