<svg width="932" height="906" viewBox="0 0 932 906" fill="none" xmlns="http://www.w3.org/2000/svg">
<line x1="229.995" y1="695" x2="229.995" y2="231" stroke="#343753" stroke-opacity="0.6" stroke-width="0.565854"/>
<line x1="478.971" y1="695" x2="478.971" y2="231" stroke="#343753" stroke-opacity="0.6" stroke-width="0.565854"/>
<line x1="252.629" y1="695" x2="252.629" y2="231" stroke="#343753" stroke-opacity="0.6" stroke-width="0.565854"/>
<line x1="501.605" y1="695" x2="501.605" y2="231" stroke="#343753" stroke-opacity="0.6" stroke-width="0.565854"/>
<line x1="275.263" y1="695" x2="275.263" y2="231" stroke="#343753" stroke-opacity="0.6" stroke-width="0.565854"/>
<line x1="524.239" y1="695" x2="524.239" y2="231" stroke="#343753" stroke-opacity="0.6" stroke-width="0.565854"/>
<line x1="297.898" y1="695" x2="297.898" y2="231" stroke="#343753" stroke-opacity="0.6" stroke-width="0.565854"/>
<line x1="546.873" y1="695" x2="546.873" y2="231" stroke="#343753" stroke-opacity="0.6" stroke-width="0.565854"/>
<line x1="320.532" y1="695" x2="320.532" y2="231" stroke="#343753" stroke-opacity="0.6" stroke-width="0.565854"/>
<line x1="569.507" y1="695" x2="569.507" y2="231" stroke="#343753" stroke-opacity="0.6" stroke-width="0.565854"/>
<line x1="343.166" y1="695" x2="343.166" y2="231" stroke="#343753" stroke-opacity="0.6" stroke-width="0.565854"/>
<line x1="592.141" y1="695" x2="592.141" y2="231" stroke="#343753" stroke-opacity="0.6" stroke-width="0.565854"/>
<line x1="365.8" y1="695" x2="365.8" y2="231" stroke="#343753" stroke-opacity="0.6" stroke-width="0.565854"/>
<line x1="614.776" y1="695" x2="614.776" y2="231" stroke="#343753" stroke-opacity="0.6" stroke-width="0.565854"/>
<line x1="388.434" y1="695" x2="388.434" y2="231" stroke="#343753" stroke-opacity="0.6" stroke-width="0.565854"/>
<line x1="637.41" y1="695" x2="637.41" y2="231" stroke="#343753" stroke-opacity="0.6" stroke-width="0.565854"/>
<line x1="411.068" y1="695" x2="411.068" y2="231" stroke="#343753" stroke-opacity="0.6" stroke-width="0.565854"/>
<line x1="660.044" y1="695" x2="660.044" y2="231" stroke="#343753" stroke-opacity="0.6" stroke-width="0.565854"/>
<line x1="433.702" y1="695" x2="433.702" y2="231" stroke="#343753" stroke-opacity="0.6" stroke-width="0.565854"/>
<line x1="682.678" y1="695" x2="682.678" y2="231" stroke="#343753" stroke-opacity="0.6" stroke-width="0.565854"/>
<line x1="456.337" y1="695" x2="456.337" y2="231" stroke="#343753" stroke-opacity="0.6" stroke-width="0.565854"/>
<line x1="705.312" y1="695" x2="705.312" y2="231" stroke="#343753" stroke-opacity="0.6" stroke-width="0.565854"/>
<line x1="716.063" y1="250.522" x2="215.283" y2="250.522" stroke="#343753" stroke-opacity="0.6" stroke-width="0.565854"/>
<line x1="716.629" y1="472.336" x2="215.849" y2="472.336" stroke="#343753" stroke-opacity="0.6" stroke-width="0.565854"/>
<line x1="716.063" y1="273.156" x2="215.283" y2="273.156" stroke="#343753" stroke-opacity="0.6" stroke-width="0.565854"/>
<line x1="716.629" y1="494.971" x2="215.849" y2="494.971" stroke="#343753" stroke-opacity="0.6" stroke-width="0.565854"/>
<line x1="716.063" y1="295.79" x2="215.283" y2="295.79" stroke="#343753" stroke-opacity="0.6" stroke-width="0.565854"/>
<line x1="716.629" y1="517.605" x2="215.849" y2="517.605" stroke="#343753" stroke-opacity="0.6" stroke-width="0.565854"/>
<line x1="716.063" y1="318.424" x2="215.283" y2="318.424" stroke="#343753" stroke-opacity="0.6" stroke-width="0.565854"/>
<line x1="716.629" y1="540.239" x2="215.849" y2="540.239" stroke="#343753" stroke-opacity="0.6" stroke-width="0.565854"/>
<line x1="716.063" y1="341.058" x2="215.283" y2="341.058" stroke="#343753" stroke-opacity="0.6" stroke-width="0.565854"/>
<line x1="716.629" y1="562.873" x2="215.849" y2="562.873" stroke="#343753" stroke-opacity="0.6" stroke-width="0.565854"/>
<line x1="716.346" y1="363.693" x2="215" y2="363.693" stroke="#343753" stroke-opacity="0.6" stroke-width="0.565854"/>
<line x1="716.912" y1="585.507" x2="215.566" y2="585.507" stroke="#343753" stroke-opacity="0.6" stroke-width="0.565854"/>
<line x1="716.063" y1="386.327" x2="215.283" y2="386.327" stroke="#343753" stroke-opacity="0.6" stroke-width="0.565854"/>
<line x1="716.629" y1="608.141" x2="215.849" y2="608.141" stroke="#343753" stroke-opacity="0.6" stroke-width="0.565854"/>
<line x1="716.063" y1="408.961" x2="215.283" y2="408.961" stroke="#343753" stroke-opacity="0.6" stroke-width="0.565854"/>
<line x1="716.629" y1="630.775" x2="215.849" y2="630.775" stroke="#343753" stroke-opacity="0.6" stroke-width="0.565854"/>
<line x1="716.063" y1="431.595" x2="215.283" y2="431.595" stroke="#343753" stroke-opacity="0.6" stroke-width="0.565854"/>
<line x1="716.629" y1="653.41" x2="215.849" y2="653.41" stroke="#343753" stroke-opacity="0.6" stroke-width="0.565854"/>
<line x1="716.063" y1="454.229" x2="215.283" y2="454.229" stroke="#343753" stroke-opacity="0.6" stroke-width="0.565854"/>
<line x1="716.629" y1="676.044" x2="215.849" y2="676.044" stroke="#343753" stroke-opacity="0.6" stroke-width="0.565854"/>
<g filter="url(#filter0_f_134_1817)">
<circle cx="465.956" cy="463.283" r="180.224" fill="url(#paint0_linear_134_1817)"/>
</g>
<defs>
<filter id="filter0_f_134_1817" x="0.541473" y="-2.13171" width="930.829" height="930.829" filterUnits="userSpaceOnUse" color-interpolation-filters="sRGB">
<feFlood flood-opacity="0" result="BackgroundImageFix"/>
<feBlend mode="normal" in="SourceGraphic" in2="BackgroundImageFix" result="shape"/>
<feGaussianBlur stdDeviation="142.595" result="effect1_foregroundBlur_134_1817"/>
</filter>
<linearGradient id="paint0_linear_134_1817" x1="465.956" y1="283.059" x2="465.956" y2="643.507" gradientUnits="userSpaceOnUse">
<stop offset="1" stop-color="#6671F3"/>
</linearGradient>
</defs>
</svg>
