<svg width="56" height="29" viewBox="0 0 56 29" fill="none" xmlns="http://www.w3.org/2000/svg">
<g clip-path="url(#clip0_24_248)">
<path d="M0.00476074 0.534948H9.32037L11.2215 5.6759L6.94394 14.4347L0.00476074 0.534948Z" fill="#6671F3"/>
<path d="M24.7197 7.48486L14.3584 28.3345L11.2215 21.1942L21.0124 0.534985H28.0653L24.7197 7.48486Z" fill="#6671F3"/>
<path fill-rule="evenodd" clip-rule="evenodd" d="M42.0302 0.534967C49.7428 0.534967 55.9952 6.78737 55.9952 14.5C55.9952 22.2126 49.7428 28.465 42.0302 28.465C34.3177 28.465 28.0652 22.2126 28.0652 14.5C28.0652 6.78737 34.3177 0.534967 42.0302 0.534967ZM42.0302 6.01656C46.7156 6.01656 50.5137 9.81464 50.5137 14.5C50.5137 19.1852 46.7156 22.9834 42.0302 22.9834C37.3449 22.9834 33.5468 19.1852 33.5468 14.5C33.5468 9.81464 37.3449 6.01656 42.0302 6.01656Z" fill="#6671F3"/>
</g>
<defs>
<clipPath id="clip0_24_248">
<rect width="56" height="27.93" fill="white" transform="matrix(1 0 0 -1 0 28.465)"/>
</clipPath>
</defs>
</svg>
